<svg aria-hidden="true" style="position: absolute; width: 0; height: 0; overflow: hidden;" version="1.1" xmlns="http://www.w3.org/2000/svg" xmlns:xlink="http://www.w3.org/1999/xlink">
  <defs>
    <symbol id="branch" viewBox="0 0 10 16">
      <title>Branch</title>
      <path
        fill-rule="evenodd"
        d="M10 5c0-1.11-.89-2-2-2a1.993 1.993 0 00-1 3.72v.3c-.02.52-.23.98-.63 1.38-.4.4-.86.61-1.38.63-.83.02-1.48.16-2 .45V4.72a1.993 1.993 0 00-1-3.72C.88 1 0 1.89 0 3a2 2 0 001 1.72v6.56c-.59.35-1 .99-1 1.72 0 1.11.89 2 2 2 1.11 0 2-.89 2-2 0-.53-.2-1-.53-1.36.09-.06.48-.41.59-.47.25-.11.56-.17.94-.17 1.05-.05 1.95-.45 2.75-1.25S8.95 7.77 9 6.73h-.02C9.59 6.37 10 5.73 10 5zM2 1.8c.66 0 1.2.55 1.2 1.2 0 .65-.55 1.2-1.2 1.2C1.35 4.2.8 3.65.8 3c0-.65.55-1.2 1.2-1.2zm0 12.41c-.66 0-1.2-.55-1.2-1.2 0-.65.55-1.2 1.2-1.2.65 0 1.2.55 1.2 1.2 0 .65-.55 1.2-1.2 1.2zm6-8c-.66 0-1.2-.55-1.2-1.2 0-.65.55-1.2 1.2-1.2.65 0 1.2.55 1.2 1.2 0 .65-.55 1.2-1.2 1.2z"
      ></path>
    </symbol>
    <symbol id="x" viewBox="0 0 12 16">
      <title>X</title>
      <path
        fill-rule="evenodd"
        d="M7.48 8l3.75 3.75-1.48 1.48L6 9.48l-3.75 3.75-1.48-1.48L4.52 8 .77 4.25l1.48-1.48L6 6.52l3.75-3.75 1.48 1.48L7.48 8z"
      ></path>
    </symbol>
    <symbol id="check" viewBox="0 0 12 16">
      <title>Check</title>
      <path
        fill-rule="evenodd"
        d="M12 5l-8 8-4-4 1.5-1.5L4 10l6.5-6.5L12 5z"
      ></path>
    </symbol>
    <symbol id="clock" viewBox="0 0 14 16">
      <title>Clock</title>
      <path
        fill-rule="evenodd"
        d="M8 8h3v2H7c-.55 0-1-.45-1-1V4h2v4zM7 2.3c3.14 0 5.7 2.56 5.7 5.7s-2.56 5.7-5.7 5.7A5.71 5.71 0 011.3 8c0-3.14 2.56-5.7 5.7-5.7zM7 1C3.14 1 0 4.14 0 8s3.14 7 7 7 7-3.14 7-7-3.14-7-7-7z"
      ></path>
    </symbol>
    <symbol id="git-commit" viewBox="0 0 14 16">
      <title>Git Commit</title>
      <path
        fill-rule="evenodd"
        d="M10.86 7c-.45-1.72-2-3-3.86-3-1.86 0-3.41 1.28-3.86 3H0v2h3.14c.45 1.72 2 3 3.86 3 1.86 0 3.41-1.28 3.86-3H14V7h-3.14zM7 10.2c-1.22 0-2.2-.98-2.2-2.2 0-1.22.98-2.2 2.2-2.2 1.22 0 2.2.98 2.2 2.2 0 1.22-.98 2.2-2.2 2.2z"
      ></path>
    </symbol>
    <symbol id="person" viewBox="0 0 12 16">
      <title>Person</title>
      <path
        fill-rule="evenodd"
        d="M12 14.002a.998.998 0 01-.998.998H1.001A1 1 0 010 13.999V13c0-2.633 4-4 4-4s.229-.409 0-1c-.841-.62-.944-1.59-1-4 .173-2.413 1.867-3 3-3s2.827.586 3 3c-.056 2.41-.159 3.38-1 4-.229.59 0 1 0 1s4 1.367 4 4v1.002z"
      ></path>
    </symbol>
    <symbol id="expand" viewBox="0 0 14 16">
      <title>Expand</title>
      <path
        fill-rule="evenodd"
        d="M11.5 7.5L14 10c0 .55-.45 1-1 1H9v-1h3.5l-2-2h-7l-2 2H5v1H1c-.55 0-1-.45-1-1l2.5-2.5L0 5c0-.55.45-1 1-1h4v1H1.5l2 2h7l2-2H9V4h4c.55 0 1 .45 1 1l-2.5 2.5zM6 6h2V3h2L7 0 4 3h2v3zm2 3H6v3H4l3 3 3-3H8V9z"
      ></path>
    </symbol>
    <symbol id="collapse" viewBox="0 0 14 16">
      <title>Collapse</title>
      <path
        fill-rule="evenodd"
        d="M7 9l3 3H8v3H6v-3H4l3-3zm3-6H8V0H6v3H4l3 3 3-3zm4 2c0-.55-.45-1-1-1h-2.5l-1 1h3l-2 2h-7l-2-2h3l-1-1H1c-.55 0-1 .45-1 1l2.5 2.5L0 10c0 .55.45 1 1 1h2.5l1-1h-3l2-2h7l2 2h-3l1 1H13c.55 0 1-.45 1-1l-2.5-2.5L14 5z"
      ></path>
    </symbol>
    <symbol id="heart" viewBox="0 0 14 16">
      <title>Heart</title>
      <path fill-rule="evenodd" d="M9 2c-.97 0-1.69.42-2.2 1-.51.58-.78.92-.8 1-.02-.08-.28-.42-.8-1-.52-.58-1.17-1-2.2-1-1.632.086-2.954 1.333-3 3 0 .52.09 1.52.67 2.67C1.25 8.82 3.01 10.61 6 13c2.98-2.39 4.77-4.17 5.34-5.33C11.91 6.51 12 5.5 12 5c-.047-1.69-1.342-2.913-3-3z"></path>
    </symbol>
    <symbol id="light-bulb" viewBox="0 0 287.9 482.6">
      <title>Heart</title>
      <path
        class="cls-1"
        d="M187 126c-5-7-16-11-26-11-14 0-31 7-31 24 0 18 14 25 35 25v14h-9c-19 2-35 10-35 32s17 33 38 33 34-14 34-37v-42h31v14h-16v28c0 31-17 52-49 52-34 0-55-21-55-48 0-21 12-34 31-41-14-4-21-15-21-30 0-26 22-38 47-38 17 0 31 5 39 15z"
        transform="translate(-19 -16)"
      />
      <path
        class="cls-1"
        d="M159 259c-33 0-56-20-56-49 0-19 10-33 28-41-12-5-19-16-19-30 0-29 27-40 49-40 18 0 32 6 40 16l1 1-15 12-1-1c-5-6-14-10-25-10s-29 4-29 22c0 16 11 23 33 23h1v17h-9c-16 2-34 8-34 31 0 19 14 32 36 32 20 0 33-14 33-36v-44h34v17h-16v27c0 34-19 53-51 53zm2-157c-21 0-46 10-46 37 0 14 8 25 21 29l4 1-4 2c-20 6-31 20-31 39 0 28 22 47 54 47 30 0 48-19 48-51v-29h16v-12h-28v41c0 24-14 39-36 39-24 0-39-14-39-35 0-20 13-31 36-33l7-1v-11c-22 0-34-9-34-26s16-25 32-25c11 0 21 4 26 10l11-8c-7-9-21-14-37-14z"
        transform="translate(-19 -16)"
      />
      <path class="cls-1" d="M134 235h19v122h-19z" />
      <path
        class="cls-1"
        d="M163 16A137 137 0 0019 152a162 162 0 0062 132c8 6 15 13 16 17 2 11 4 28 4 46 1 11 5 17 9 20 7 6 16 6 19 6h33v-19h-35l-4-1-2-7c-1-18-2-36-5-49-2-11-12-19-23-28-6-4-12-10-19-17-16-18-36-50-36-100 0-32 22-117 125-117 98 0 124 76 124 117 0 38-10 69-31 93a181 181 0 01-16 15c-13 12-26 24-30 42-4 21-3 70-3 72v2c0 8-2 11-7 11l-75 1c-2 0-14 0-22 7a23 23 0 00-6 17c0 19 17 25 29 25h78c7 0 7 12 0 12h-83a24 24 0 00-17 6c-3 3-7 9-7 19a22 22 0 007 16c7 7 18 8 23 8h99v-19H121c-7 0-7-12 0-12h81c5 0 13-1 19-7a23 23 0 008-17 23 23 0 00-8-18c-8-7-20-7-24-7h-76c-7 0-7-11 0-11h87c4 0 8-2 12-6 8-7 7-20 7-28 0-3-2-49 2-68 2-11 13-20 24-31a198 198 0 0017-16c24-28 36-64 36-106 0-47-30-136-143-136zM208 387z"
        transform="translate(-19 -16)"
      />
    </symbol>
  </defs>
</svg>

